<?xml version="1.0" encoding="UTF-8" standalone="no"?>
<!-- Created with Inkscape (http://www.inkscape.org/) -->

<svg
   xmlns:dc="http://purl.org/dc/elements/1.1/"
   xmlns:cc="http://creativecommons.org/ns#"
   xmlns:rdf="http://www.w3.org/1999/02/22-rdf-syntax-ns#"
   xmlns:svg="http://www.w3.org/2000/svg"
   xmlns="http://www.w3.org/2000/svg"
   xmlns:sodipodi="http://sodipodi.sourceforge.net/DTD/sodipodi-0.dtd"
   xmlns:inkscape="http://www.inkscape.org/namespaces/inkscape"
   width="242mm"
   height="55mm"
   viewBox="0 0 242 55"
   version="1.1"
   id="svg5404"
   inkscape:version="0.92.2 (5c3e80d, 2017-08-06)"
   sodipodi:docname="census_logo.svg">
  <defs
     id="defs5398" />
  <sodipodi:namedview
     id="base"
     pagecolor="#ffffff"
     bordercolor="#666666"
     borderopacity="1.0"
     inkscape:pageopacity="0.0"
     inkscape:pageshadow="2"
     inkscape:zoom="0.35"
     inkscape:cx="-150"
     inkscape:cy="217.14286"
     inkscape:document-units="mm"
     inkscape:current-layer="layer1"
     showgrid="false"
     inkscape:window-width="1600"
     inkscape:window-height="826"
     inkscape:window-x="0"
     inkscape:window-y="27"
     inkscape:window-maximized="1" />
  <metadata
     id="metadata5401">
    <rdf:RDF>
      <cc:Work
         rdf:about="">
        <dc:format>image/svg+xml</dc:format>
        <dc:type
           rdf:resource="http://purl.org/dc/dcmitype/StillImage" />
        <dc:title></dc:title>
      </cc:Work>
    </rdf:RDF>
  </metadata>
  <g
     inkscape:label="Ebene 1"
     inkscape:groupmode="layer"
     id="layer1"
     transform="translate(0,-242)">
    <g
       aria-label="census"
       style="font-style:normal;font-weight:normal;font-size:25.92391777px;line-height:1.25;font-family:sans-serif;letter-spacing:0px;word-spacing:0px;fill:#005180;fill-opacity:1;stroke:none;stroke-width:0.64809793"
       id="text12-7-0-8-2-2-4-1" />
    <path
       d="m 94.551047,264.89884 h -4.64557 q -0.44243,-3.04174 -2.21217,-4.64556 -1.76974,-1.65914 -4.64557,-1.65914 -3.7607,0 -5.91757,3.09705 -2.10156,3.04174 -2.10156,8.46157 0,5.1433 2.15687,8.07443 2.15687,2.93113 5.97287,2.93113 5.91757,0 7.07896,-6.96835 h 4.64556 q -0.44243,5.30922 -3.53948,8.29566 -3.09704,2.93113 -8.29565,2.93113 -5.91757,0 -9.40174,-4.09252 -3.428872,-4.14783 -3.428872,-11.17148 0,-7.18957 3.484172,-11.50331 3.53948,-4.31374 9.40174,-4.31374 5.0327,0 8.01914,2.70991 3.04174,2.70992 3.42887,7.85322 z"
       style="font-style:normal;font-variant:normal;font-weight:normal;font-stretch:normal;font-size:55.30436325px;line-height:1.25;font-family:FreeSans;-inkscape-font-specification:FreeSans;letter-spacing:0px;word-spacing:0px;fill:#005082;fill-opacity:1;stroke:none;stroke-width:0.64809793"
       id="path5416"
       inkscape:connector-curvature="0" />
    <path
       d="m 124.35233,271.20354 h -21.34749 q 0.11061,4.53496 2.32278,7.24487 2.26748,2.70991 6.19409,2.70991 5.64105,0 7.5767,-5.80695 h 4.64557 q -0.88487,4.75617 -4.14783,7.41078 -3.26296,2.65461 -8.24035,2.65461 -6.08348,0 -9.62296,-4.09252 -3.539483,-4.14783 -3.539483,-11.28209 0,-7.13427 3.594783,-11.3927 3.65009,-4.31374 9.67827,-4.31374 12.88592,0 12.88592,16.86783 z m -21.23688,-3.7607 h 16.31479 q 0,-3.76069 -2.26748,-6.30469 -2.26748,-2.54401 -5.75166,-2.54401 -3.48417,0 -5.75165,2.4334 -2.26748,2.37808 -2.544,6.4153 z"
       style="font-style:normal;font-variant:normal;font-weight:normal;font-stretch:normal;font-size:55.30436325px;line-height:1.25;font-family:FreeSans;-inkscape-font-specification:FreeSans;letter-spacing:0px;word-spacing:0px;fill:#005082;fill-opacity:1;stroke:none;stroke-width:0.64809793"
       id="path5418"
       inkscape:connector-curvature="0" />
    <path
       d="m 129.34095,255.16527 h 4.25844 v 4.86679 q 1.93565,-3.04174 4.14783,-4.36905 2.26748,-1.3273 5.47513,-1.3273 4.20313,0 6.69183,2.15687 2.48869,2.15687 2.48869,5.75165 v 21.90053 h -4.59026 v -20.07548 q 0,-2.59931 -1.60382,-4.14783 -1.60383,-1.54852 -4.36905,-1.54852 -3.53948,0 -5.69635,2.70991 -2.15687,2.65461 -2.15687,7.07896 v 15.98296 h -4.64557 z"
       style="font-style:normal;font-variant:normal;font-weight:normal;font-stretch:normal;font-size:55.30436325px;line-height:1.25;font-family:FreeSans;-inkscape-font-specification:FreeSans;letter-spacing:0px;word-spacing:0px;fill:#005082;fill-opacity:1;stroke:none;stroke-width:0.64809793"
       id="path5420"
       inkscape:connector-curvature="0" />
    <path
       d="m 162.47432,275.51728 q 0.33182,2.5993 1.76974,4.14783 1.49321,1.49321 5.30921,1.49321 3.04174,0 4.86679,-1.21669 1.88035,-1.272 1.88035,-3.31826 0,-1.60383 -1.05079,-2.544 -1.05078,-0.94018 -3.42887,-1.49322 l -4.31374,-1.05078 q -5.1433,-1.2167 -7.18956,-3.04174 -1.99096,-1.88035 -1.99096,-5.30922 0,-4.03722 3.04174,-6.41531 3.04174,-2.43339 8.07444,-2.43339 5.03269,0 7.74261,2.32278 2.70991,2.32278 2.76521,6.58122 h -4.86678 q -0.16591,-4.64557 -5.80696,-4.64557 -2.82052,0 -4.47965,1.2167 -1.65913,1.16139 -1.65913,3.15235 0,1.54852 1.272,2.544 1.272,0.94017 4.09252,1.60383 l 4.42435,1.05078 q 4.31374,1.05078 6.24939,2.98643 1.93566,1.88035 1.93566,5.08801 0,4.20313 -3.26296,6.69182 -3.20765,2.4887 -8.68279,2.4887 -11.22678,0 -11.55861,-9.89948 z"
       style="font-style:normal;font-variant:normal;font-weight:normal;font-stretch:normal;font-size:55.30436325px;line-height:1.25;font-family:FreeSans;-inkscape-font-specification:FreeSans;letter-spacing:0px;word-spacing:0px;fill:#005082;fill-opacity:1;stroke:none;stroke-width:0.64809793"
       id="path5422"
       inkscape:connector-curvature="0" />
    <path
       d="m 209.32748,284.14476 h -4.14783 v -4.03722 q -2.04626,2.87583 -4.25843,4.09252 -2.21218,1.2167 -5.41983,1.2167 -4.20313,0 -6.74713,-2.15687 -2.4887,-2.15687 -2.4887,-5.75165 v -22.34297 h 4.59026 v 20.51792 q 0,2.59931 1.60383,4.14783 1.60383,1.54852 4.36904,1.54852 3.59479,0 5.75166,-2.65461 2.15687,-2.70991 2.15687,-7.13426 v -16.4254 h 4.59026 z"
       style="font-style:normal;font-variant:normal;font-weight:normal;font-stretch:normal;font-size:55.30436325px;line-height:1.25;font-family:FreeSans;-inkscape-font-specification:FreeSans;letter-spacing:0px;word-spacing:0px;fill:#005082;fill-opacity:1;stroke:none;stroke-width:0.64809793"
       id="path5424"
       inkscape:connector-curvature="0" />
    <path
       d="m 219.39893,275.51728 q 0.33183,2.5993 1.76974,4.14783 1.49322,1.49321 5.30922,1.49321 3.04174,0 4.86678,-1.21669 1.88035,-1.272 1.88035,-3.31826 0,-1.60383 -1.05078,-2.544 -1.05079,-0.94018 -3.42887,-1.49322 l -4.31374,-1.05078 q -5.14331,-1.2167 -7.18957,-3.04174 -1.99096,-1.88035 -1.99096,-5.30922 0,-4.03722 3.04174,-6.41531 3.04174,-2.43339 8.07444,-2.43339 5.0327,0 7.74261,2.32278 2.70991,2.32278 2.76522,6.58122 h -4.86679 q -0.16591,-4.64557 -5.80695,-4.64557 -2.82053,0 -4.47966,1.2167 -1.65913,1.16139 -1.65913,3.15235 0,1.54852 1.272,2.544 1.272,0.94017 4.09253,1.60383 l 4.42434,1.05078 q 4.31374,1.05078 6.2494,2.98643 1.93565,1.88035 1.93565,5.08801 0,4.20313 -3.26296,6.69182 -3.20765,2.4887 -8.68278,2.4887 -11.22679,0 -11.55861,-9.89948 z"
       style="font-style:normal;font-variant:normal;font-weight:normal;font-stretch:normal;font-size:55.30436325px;line-height:1.25;font-family:FreeSans;-inkscape-font-specification:FreeSans;letter-spacing:0px;word-spacing:0px;fill:#005082;fill-opacity:1;stroke:none;stroke-width:0.64809793"
       id="path5426"
       inkscape:connector-curvature="0" />
    <path
       style="fill:#e1eb01;fill-opacity:1;stroke-width:0.43386519"
       d="m 10.682709,244.45681 c -4.6132299,0 -8.3263399,3.7131 -8.3263399,8.32634 v 34.18505 c 0,4.61324 3.71311,8.32747 8.3263399,8.32747 h 19.68738 a 52.552771,52.552771 0 0 1 -17.17379,-38.78304 52.552771,52.552771 0 0 1 1.4658,-12.05582 z m 19.68623,0 a 37.414861,37.414861 0 0 0 -2.03507,12.05582 37.414861,37.414861 0 0 0 23.661129,34.75883 c 0.757306,-1.25538 1.200215,-2.7243 1.200215,-4.30326 v -34.18505 c 0,-4.61324 -3.714235,-8.32634 -8.327454,-8.32634 z"
       id="rect4981-2-3-9-7-4-0"
       inkscape:connector-curvature="0"
       inkscape:export-xdpi="96"
       inkscape:export-ydpi="96" />
  </g>
</svg>
